<svg xmlns="http://www.w3.org/2000/svg" width="27.704" height="26.657" viewBox="0 0 27.704 26.657"><defs><style>.a{fill:#12bce0;}</style></defs><path class="a" d="M5.283,0H8.22V2.419H5.283a2.821,2.821,0,0,0-1.952.774h0a2.6,2.6,0,0,0-.807,1.874V8.53H0V5.072A4.959,4.959,0,0,1,1.55,1.495h0A5.379,5.379,0,0,1,5.283,0ZM.734,11.912H26.97a.729.729,0,0,1,.734.709v1.414a.728.728,0,0,1-.734.716H.734A.726.726,0,0,1,0,14.036V12.621a.724.724,0,0,1,.734-.709ZM20.465,0h1.957a5.372,5.372,0,0,1,3.726,1.488h0A4.959,4.959,0,0,1,27.7,5.072V8.53H25.185V5.072A2.6,2.6,0,0,0,24.371,3.2h0a2.818,2.818,0,0,0-1.952-.777H20.465ZM27.7,17.756v3.829a5.2,5.2,0,0,1-5.283,5.072H20.465V24.239h1.957a2.723,2.723,0,0,0,2.763-2.653V17.756ZM8.211,26.651H5.274A5.382,5.382,0,0,1,1.55,25.165l-.072-.076A4.947,4.947,0,0,1,0,21.585V17.756H2.519v3.829a2.6,2.6,0,0,0,.757,1.824l.056.048a2.815,2.815,0,0,0,1.95.781H8.22v2.419Z" transform="translate(0)"/></svg>